<svg preserveAspectRatio="none" overflow="visible" style="display: block;" width="20" height="20" viewBox="0 0 20 20" fill="none" xmlns="http://www.w3.org/2000/svg">
<g id="icon / bug">
<path id="Vector" d="M13.75 10C13.75 7.92893 12.0711 6.25 10 6.25C7.92893 6.25 6.25 7.92893 6.25 10V12.5C6.25 14.5711 7.92893 16.25 10 16.25C12.0711 16.25 13.75 14.5711 13.75 12.5V10Z" stroke="#D6D3D1" stroke-width="1.33333" stroke-linecap="round" stroke-linejoin="round"/>
<path id="Vector_2" d="M7.91667 6.25C7.91667 5.69747 8.13616 5.16756 8.52686 4.77686C8.91756 4.38616 9.44747 4.16667 10 4.16667C10.5525 4.16667 11.0824 4.38616 11.4731 4.77686C11.8638 5.16756 12.0833 5.69747 12.0833 6.25" stroke="#D6D3D1" stroke-width="1.33333" stroke-linecap="round" stroke-linejoin="round"/>
<path id="Vector_3" d="M6.25 9.58333H3.33333M16.6667 9.58333H13.75M6.25 13.3333H3.33333M16.6667 13.3333H13.75M7.16667 5.25L5.66667 3.75M12.8333 5.25L14.3333 3.75" stroke="#D6D3D1" stroke-width="1.33333" stroke-linecap="round" stroke-linejoin="round"/>
</g>
</svg>
