<svg preserveAspectRatio="none" overflow="visible" style="display: block;" width="20" height="20" viewBox="0 0 20 20" fill="none" xmlns="http://www.w3.org/2000/svg">
<g id="icon / bot">
<path id="Vector" d="M13.75 6.66667H6.25C4.86929 6.66667 3.75 7.78595 3.75 9.16667V13.3333C3.75 14.714 4.86929 15.8333 6.25 15.8333H13.75C15.1307 15.8333 16.25 14.714 16.25 13.3333V9.16667C16.25 7.78595 15.1307 6.66667 13.75 6.66667Z" stroke="#A8420A" stroke-width="1.41667" stroke-linecap="round" stroke-linejoin="round"/>
<path id="Vector_2" d="M10 3.75V6.66667" stroke="#A8420A" stroke-width="1.41667" stroke-linecap="round" stroke-linejoin="round"/>
<path id="Vector_3" d="M10 3.91667C10.5063 3.91667 10.9167 3.50626 10.9167 3C10.9167 2.49374 10.5063 2.08333 10 2.08333C9.49374 2.08333 9.08333 2.49374 9.08333 3C9.08333 3.50626 9.49374 3.91667 10 3.91667Z" stroke="#A8420A" stroke-width="1.41667" stroke-linecap="round" stroke-linejoin="round"/>
<path id="Vector_4" d="M7.91667 11.6667C8.3769 11.6667 8.75 11.2936 8.75 10.8333C8.75 10.3731 8.3769 10 7.91667 10C7.45643 10 7.08333 10.3731 7.08333 10.8333C7.08333 11.2936 7.45643 11.6667 7.91667 11.6667Z" fill="#A8420A"/>
<path id="Vector_5" d="M12.0833 11.6667C12.5436 11.6667 12.9167 11.2936 12.9167 10.8333C12.9167 10.3731 12.5436 10 12.0833 10C11.6231 10 11.25 10.3731 11.25 10.8333C11.25 11.2936 11.6231 11.6667 12.0833 11.6667Z" fill="#A8420A"/>
</g>
</svg>
